#!OML:ASF I:\Actors\actors\Patient Classification 2\Patient 1\Session 1\actor1.ASF
:FULLY-SPECIFIED
:DEGREES
730
root -1.71856 18.696 6.25039 -0.62677 18.4666 4.36094
lowerback 23.6692 -2.12353 11.2698
upperback 6.50861 -0.359319 -4.38518
thorax -5.97843 -0.186251 -11.3752
lowerneck -15.0001 -6.08057 -15.4837
upperneck 33.1724 0.750831 -12.2166
head 14.4675 -3.07785 -2.25799
rclavicle 1.93318e-014 -2.46493e-014
rhumerus -41.2489 19.0741 -107.676
rradius 44.9429
rwrist 14.4393
rhand 1.54438 -50.7706
rfingers 7.12502
rthumb 27.0688 -78.8503
lclavicle 1.93318e-014 -2.46493e-014
lhumerus -40.968 -27.9627 94.861
lradius 68.0416
lwrist -5.64723
lhand 20.7443 2.49641
lfingers 7.12502
lthumb 45.2278 25.9057
rfemur 0 0 0
rtibia 0
rfoot 0 0
rtoes 0
lfemur -5.9838 -6.17873 -15.132
ltibia 21.9789
lfoot -10.2366 -1.76406
ltoes -54.4117
731
root -1.72294 18.6971 6.23909 -0.58335 18.5005 4.23127
lowerback 23.9188 -1.94732 10.8798
upperback 6.5259 -0.195039 -4.38842
thorax -6.04755 -0.106446 -11.1985
lowerneck -14.9585 -6.30175 -15.7182
upperneck 33.1438 0.256452 -11.5814
head 14.4319 -3.23374 -2.0363
rclavicle 2.13694e-015 -2.00773e-014
rhumerus -41.2842 18.8647 -107.549
rradius 44.9892
rwrist 14.9839
rhand 1.24777 -50.7498
rfingers 7.12502
rthumb 26.785 -78.8733
lclavicle 2.13694e-015 -2.00773e-014
lhumerus -40.8315 -27.814 94.954
lradius 68.3087
lwrist -5.96802
lhand 20.6721 2.58949
lfingers 7.12502
lthumb 45.1607 26.0255
rfemur 0 0 0
rtibia 0
rfoot 0 0
rtoes 0
lfemur -6.16198 -6.38622 -14.9984
ltibia 22.0562
lfoot -10.3128 -1.58674
ltoes -54.4497
732
root -1.7282 18.6985 6.22739 -0.547164 18.531 4.07073
lowerback 24.2084 -1.77596 10.5235
upperback 6.52399 -0.0268041 -4.38787
thorax -6.15841 -0.0288232 -11.0418
lowerneck -14.9179 -6.54238 -15.9397
upperneck 33.1208 -0.270618 -10.9414
head 14.4049 -3.40187 -1.82233
rclavicle 6.60462e-014 -1.31198e-014
rhumerus -41.3011 18.6398 -107.388
rradius 45.0662
rwrist 15.7329
rhand 0.929936 -50.545
rfingers 7.12502
rthumb 26.4808 -78.7147
lclavicle 6.60462e-014 -1.31198e-014
lhumerus -40.7591 -27.7371 95.0643
lradius 68.6092
lwrist -6.14337
lhand 20.6049 2.73496
lfingers 7.12502
lthumb 45.0982 26.1957
rfemur 0 0 0
rtibia 0
rfoot 0 0
rtoes 0
lfemur -6.34542 -6.65493 -14.8367
ltibia 22.1366
lfoot -10.3955 -1.33291
ltoes -54.5392
733
root -1.73263 18.7001 6.21538 -0.494497 18.5651 3.94964
lowerback 24.4964 -1.60431 10.1544
upperback 6.53403 0.134963 -4.39933
thorax -6.25824 0.0474404 -10.8904
lowerneck -14.8905 -6.80149 -16.0645
upperneck 33.047 -0.811521 -10.4341
head 14.3626 -3.57776 -1.67939
rclavicle -1.2424e-014 1.86361e-014
rhumerus -41.2909 18.3564 -107.22
rradius 45.1072
rwrist 16.1711
rhand 0.615709 -50.261
rfingers 7.12502
rthumb 26.18 -78.4757
lclavicle -1.2424e-014 1.86361e-014
lhumerus -40.7177 -27.6921 95.1899
lradius 68.9572
lwrist -6.26275
lhand 20.6742 2.89802
lfingers 7.12502
lthumb 45.1626 26.3332
rfemur 0 0 0
rtibia 0
rfoot 0 0
rtoes 0
lfemur -6.53206 -6.90875 -14.717
ltibia 22.2187
lfoot -10.4623 -1.09323
ltoes -54.5996
734
root -1.73664 18.7013 6.20168 -0.419657 18.6432 3.86787
lowerback 24.7566 -1.45467 9.72767
upperback 6.55333 0.250416 -4.39224
thorax -6.34837 0.102918 -10.6684
lowerneck -14.9084 -7.04841 -16.1887
upperneck 32.942 -1.30973 -9.97822
head 14.3217 -3.74134 -1.55209
rclavicle -3.8763e-014 -4.19436e-014
rhumerus -41.3002 18.109 -107.045
rradius 45.1477
rwrist 16.2066
rhand 0.419259 -50.1152
rfingers 7.12502
rthumb 25.9919 -78.3577
lclavicle -3.8763e-014 -4.19436e-014
lhumerus -40.6547 -27.5385 95.336
lradius 69.2169
lwrist -6.62334
lhand 20.5766 2.93778
lfingers 7.12502
lthumb 45.0719 26.409
rfemur 0 0 0
rtibia 0
rfoot 0 0
rtoes 0
lfemur -6.75673 -7.01344 -14.6582
ltibia 22.301
lfoot -10.4506 -0.905849
ltoes -55.5574
735
root -1.73926 18.7022 6.18697 -0.396913 18.6949 3.76585
lowerback 25.1045 -1.32165 9.32882
upperback 6.55622 0.357218 -4.37313
thorax -6.50375 0.149153 -10.4517
lowerneck -14.9407 -7.28419 -16.3625
upperneck 32.8274 -1.79426 -9.46461
head 14.2854 -3.8978 -1.39279
rclavicle 2.39908e-014 -5.6343e-015
rhumerus -41.3595 17.8948 -106.89
rradius 45.2168
rwrist 16.2411
rhand 0.439239 -50.0349
rfingers 7.12502
rthumb 26.011 -78.2745
lclavicle 2.39908e-014 -5.6343e-015
lhumerus -40.641 -27.3244 95.5099
lradius 69.3976
lwrist -7.10554
lhand 20.2755 2.92109
lfingers 7.12502
lthumb 44.7916 26.5023
rfemur 0 0 0
rtibia 0
rfoot 0 0
rtoes 0
lfemur -6.92523 -7.1589 -14.5927
ltibia 22.3823
lfoot -10.4615 -0.670069
ltoes -57.0813
736
root -1.74028 18.7039 6.17348 -0.386798 18.7078 3.62882
lowerback 25.5072 -1.186 9.04015
upperback 6.53128 0.493815 -4.38591
thorax -6.70808 0.204663 -10.3523
lowerneck -14.9584 -7.50942 -16.502
upperneck 32.7119 -2.29425 -8.90072
head 14.2475 -4.05006 -1.22114
rclavicle 3.66137e-014 -1.73191e-014
rhumerus -41.441 17.5368 -106.791
rradius 45.2694
rwrist 16.5096
rhand 0.683526 -49.8943
rfingers 7.12502
rthumb 26.2449 -78.0993
lclavicle 3.66137e-014 -1.73191e-014
lhumerus -40.6802 -27.2466 95.6617
lradius 69.5476
lwrist -7.48821
lhand 20.0999 2.93754
lfingers 7.12502
lthumb 44.6281 26.5821
rfemur 0 0 0
rtibia 0
rfoot 0 0
rtoes 0
lfemur -7.06069 -7.43725 -14.4556
ltibia 22.4748
lfoot -10.5641 -0.459796
ltoes -55.8084
737
root -1.74297 18.7051 6.15813 -0.329647 18.7681 3.44678
lowerback 25.8979 -1.07554 8.82795
upperback 6.47556 0.612972 -4.40648
thorax -6.94361 0.247539 -10.3049
lowerneck -15.0189 -7.71939 -16.6095
upperneck 32.6414 -2.77005 -8.32188
head 14.2417 -4.19009 -1.0495
rclavicle 1.05977e-013 -4.07012e-014
rhumerus -41.5555 17.2659 -106.85
rradius 45.1854
rwrist 15.9227
rhand -0.0628632 -49.8359
rfingers 7.12502
rthumb 25.5302 -78.1453
lclavicle 1.05977e-013 -4.07012e-014
lhumerus -40.7999 -27.2668 95.765
lradius 69.7542
lwrist -7.82004
lhand 19.9794 3.05392
lfingers 7.12502
lthumb 44.5159 26.7417
rfemur 0 0 0
rtibia 0
rfoot 0 0
rtoes 0
lfemur -7.29958 -7.54933 -14.2416
ltibia 22.5754
lfoot -10.6181 -0.426322
ltoes -55.1204
738
root -1.74648 18.7054 6.14112 -0.275312 18.8598 3.21734
lowerback 26.3019 -0.997791 8.62234
upperback 6.39724 0.694129 -4.38255
thorax -7.2215 0.26836 -10.2002
lowerneck -15.0642 -7.90798 -16.6693
upperneck 32.5151 -3.20232 -7.8504
head 14.2079 -4.31608 -0.919067
rclavicle -9.07452e-014 3.27995e-014
rhumerus -41.8163 17.3445 -107.138
rradius 44.9612
rwrist 13.5908
rhand -3.32847 -49.7939
rfingers 7.12502
rthumb 22.3987 -78.5153
lclavicle -9.07452e-014 3.27995e-014
lhumerus -41.0262 -27.2047 95.8925
lradius 70.0657
lwrist -8.10925
lhand 19.792 3.31041
lfingers 7.12502
lthumb 44.3413 27.0648
rfemur 0 0 0
rtibia 0
rfoot 0 0
rtoes 0
lfemur -7.58413 -7.5582 -13.9814
ltibia 22.6804
lfoot -10.6566 -0.471948
ltoes -55.2464
739
root -1.74891 18.7076 6.12681 -0.21206 18.9589 3.03625
lowerback 26.6287 -0.916924 8.37077
upperback 6.35392 0.758813 -4.36344
thorax -7.4265 0.288612 -10.0642
lowerneck -15.1132 -8.10736 -16.7093
upperneck 32.3286 -3.65807 -7.3908
head 14.1509 -4.44822 -0.799059
rclavicle 1.75427e-014 2.71341e-014
rhumerus -41.8397 16.793 -106.843
rradius 45.0976
rwrist 14.9784
rhand -0.773265 -49.2785
rfingers 7.12502
rthumb 24.8495 -77.6836
lclavicle 1.75427e-014 2.71341e-014
lhumerus -41.1364 -27.166 96.0092
lradius 70.2947
lwrist -8.23207
lhand 19.5385 3.46853
lfingers 7.12502
lthumb 44.105 27.3122
rfemur 0 0 0
rtibia 0
rfoot 0 0
rtoes 0
lfemur -7.85063 -7.76004 -13.7867
ltibia 22.7912
lfoot -10.7746 -0.359117
ltoes -55.471
740
root -1.74964 18.7107 6.1148 -0.133159 19.0619 2.89563
lowerback 26.8572 -0.813962 8.09283
upperback 6.36521 0.836209 -4.34413
thorax -7.51862 0.325438 -9.91002
lowerneck -15.2203 -8.32801 -16.7794
upperneck 32.1397 -4.13895 -6.87713
head 14.1126 -4.58864 -0.661181
rclavicle 1.04859e-014 1.05356e-014
rhumerus -41.8929 16.4276 -106.681
rradius 45.2253
rwrist 15.4686
rhand -1.01801 -48.9875
rfingers 7.12502
rthumb 24.6149 -77.4248
lclavicle 1.04859e-014 1.05356e-014
lhumerus -41.0836 -27.1638 96.1151
lradius 70.386
lwrist -8.33407
lhand 19.1964 3.41092
lfingers 7.12502
lthumb 43.7858 27.3732
rfemur 0 0 0
rtibia 0
rfoot 0 0
rtoes 0
lfemur -8.09325 -8.09434 -13.6465
ltibia 22.8853
lfoot -10.8706 -0.116373
ltoes -55.557
741
root -1.74766 18.7131 6.10293 -0.0256887 19.1488 2.74713
lowerback 27.0885 -0.721647 7.81864
upperback 6.3341 0.900605 -4.30801
thorax -7.66398 0.350721 -9.73648
lowerneck -15.29 -8.50475 -16.8451
upperneck 31.9446 -4.56095 -6.37568
head 14.0642 -4.70442 -0.517877
rclavicle -1.02374e-014 -3.06128e-014
rhumerus -41.9847 16.1622 -106.584
rradius 45.2665
rwrist 15.4701
rhand -1.90609 -48.901
rfingers 7.12502
rthumb 23.7635 -77.4516
lclavicle -1.02374e-014 -3.06128e-014
lhumerus -41.1001 -27.0348 96.2724
lradius 70.457
lwrist -8.50849
lhand 18.8538 3.40774
lfingers 7.12502
lthumb 43.4658 27.487
rfemur 0 0 0
rtibia 0
rfoot 0 0
rtoes 0
lfemur -8.33909 -8.41015 -13.4989
ltibia 22.9444
lfoot -10.9398 0.122515
ltoes -55.5303
